# xmcd
#
# Track frame offsets: 
#        150
#        14947
#        28708
#        42699
#        57232
#        71160
#        84754
#        102652
#        117982
#        134041
#        151658
#        165708
#        179311
#        192392
#        208026
#        223437
#        241474
#        256949
#        269345
#        286558
#        303036
#        318183
#
# Disc length: 4417 seconds
#
# Revision: 2
# Processed by: cddbd v1.5.2PL0 Copyright (c) Steve Scherf et al.
# Submitted via: ExactAudioCopy v1.0b3
#
DISCID=4b113f16
DTITLE=George R. R. Martin - A Storm of Swords - Disc 19
DYEAR=2004
DGENRE=Audio Book
TTITLE0=A Storm of Swords 19-01
TTITLE1=A Storm of Swords 19-02
TTITLE2=A Storm of Swords 19-03
TTITLE3=A Storm of Swords 19-04
TTITLE4=A Storm of Swords 19-05
TTITLE5=A Storm of Swords 19-06
TTITLE6=A Storm of Swords 19-07
TTITLE7=A Storm of Swords 19-08
TTITLE8=A Storm of Swords 19-09
TTITLE9=A Storm of Swords 19-10
TTITLE10=A Storm of Swords 19-11
TTITLE11=A Storm of Swords 19-12
TTITLE12=A Storm of Swords 19-13
TTITLE13=A Storm of Swords 19-14
TTITLE14=A Storm of Swords 19-15
TTITLE15=A Storm of Swords 19-16
TTITLE16=A Storm of Swords 19-17
TTITLE17=A Storm of Swords 19-18
TTITLE18=A Storm of Swords 19-19
TTITLE19=A Storm of Swords 19-20
TTITLE20=A Storm of Swords 19-21
TTITLE21=A Storm of Swords 19-22
EXTD=
EXTT0=
EXTT1=
EXTT2=
EXTT3=
EXTT4=
EXTT5=
EXTT6=
EXTT7=
EXTT8=
EXTT9=
EXTT10=
EXTT11=
EXTT12=
EXTT13=
EXTT14=
EXTT15=
EXTT16=
EXTT17=
EXTT18=
EXTT19=
EXTT20=
EXTT21=
PLAYORDER=
